<svg width="21" height="21" viewBox="0 0 21 21" fill="none" xmlns="http://www.w3.org/2000/svg">
<path d="M13.3619 3.88452H7.63647C5.56723 3.88452 3.88379 5.56797 3.88379 7.63716V13.3627C3.88379 15.4319 5.56723 17.1153 7.63647 17.1153H13.3619C15.4312 17.1153 17.1146 15.4319 17.1146 13.3627V7.6372C17.1146 5.56797 15.4312 3.88452 13.3619 3.88452ZM10.4992 14.331C8.30892 14.331 6.52696 12.5491 6.52696 10.3588C6.52696 8.16844 8.30888 6.38656 10.4992 6.38656C12.6895 6.38656 14.4714 8.16848 14.4714 10.3588C14.4714 12.549 12.6895 14.331 10.4992 14.331ZM15.3602 6.46047C15.3602 6.80024 15.0848 7.0757 14.745 7.0757C14.4052 7.0757 14.1298 6.80024 14.1298 6.46047V6.44911C14.1298 6.10933 14.4052 5.83387 14.745 5.83387C15.0848 5.83387 15.3602 6.10933 15.3602 6.44911V6.46047Z" fill="#3E3E3E"/>
<path d="M10.5006 13.1007C12.0148 13.1007 13.2423 11.8732 13.2423 10.359C13.2423 8.84472 12.0148 7.61719 10.5006 7.61719C8.98633 7.61719 7.75879 8.84472 7.75879 10.359C7.75879 11.8732 8.98633 13.1007 10.5006 13.1007Z" fill="#3E3E3E"/>
<path d="M20.3848 0H0.615234C0.275461 0 0 0.275461 0 0.615234V20.3848C0 20.7245 0.275461 21 0.615234 21H20.3848C20.7245 21 21 20.7245 21 20.3848V0.615234C21 0.275461 20.7245 0 20.3848 0ZM18.3459 13.3627C18.3459 16.1104 16.1104 18.3458 13.3627 18.3458H7.63727C4.88955 18.3458 2.65412 16.1104 2.65412 13.3627V7.63727C2.65412 4.88955 4.88955 2.65416 7.63727 2.65416H13.3627C16.1104 2.65416 18.3459 4.88955 18.3459 7.63727V13.3627Z" fill="#3E3E3E"/>
</svg>